<svg version="1.2" xmlns="http://www.w3.org/2000/svg" viewBox="0 0 1024 1024" width="1024" height="1024">
	<defs>
		<filter x="-50%" y="-50%" width="200%" height="200%" id="f1" ><feDropShadow dx="0" dy="0" stdDeviation="60.41666666666667" flood-color="#ea9500" flood-opacity="1"/></filter>
		<filter x="-50%" y="-50%" width="200%" height="200%" id="f2" ><feDropShadow dx="0" dy="0" stdDeviation="6.666666666666667" flood-color="#e88500" flood-opacity=".6"/></filter>
	</defs>
	<style>
		.s0 { filter: url(#f1) url(#f2);fill: #fedb4b } 
	</style>
	<path fill-rule="evenodd" class="s0" d="m393.25 513.81c1.75 1.19 1.75 1.19 3.75 4.19 0.9 8.2-1.68 14.32-4.81 21.81q-0.76 1.87-1.52 3.74-1.57 3.87-3.15 7.72c-2.26 5.53-4.42 11.1-6.58 16.67q-5.68 14.47-11.49 28.9c-15.16 36.43-15.16 36.43-26.45 74.16q-0.3 1.3-0.61 2.64c-0.46 2.81-0.6 5.52-0.64 8.36q-0.04 1.51-0.08 3.06c0.39 3.46 1.16 5.23 3.33 7.94 2.8 1.66 4.15 2.21 7.32 1.42 6.85-3.57 12.23-7.97 17.68-13.42q1.23-1.23 2.5-2.5c14.46-15.18 25.02-34.08 31.12-54.08q0.38-1.2 0.77-2.45 0.33-1.07 0.66-2.18c1.25-2.35 2.49-2.88 4.95-3.79 2.25-0.08 2.25-0.08 4.56 0.19q1.14 0.11 2.32 0.23c2.56 0.7 3.57 1.43 5.12 3.58 0.39 2.73 0.14 5.23 0 8q0.84-0.24 1.7-0.49c4.17-0.93 8.42-0.74 12.67-0.76q1.4-0.03 2.83-0.06c5.34-0.03 9.23 0.21 13.8 3.31 2.72 4.08 2.57 7.21 2 12-0.9 2.99-2.18 5.71-3.56 8.5q-1.11 2.35-2.2 4.71c-0.56 1.19-0.56 1.19-1.13 2.4-1.76 3.8-3.38 7.65-4.99 11.52q-0.42 1-0.86 2.04c-2.75 6.65-5.1 13.55-4.26 20.83 1.46 2.63 1.46 2.63 4 4 9.83 0.23 19.03-7.94 26-14q1.49-1.29 3.02-2.61c15.3-13.48 25.5-29.64 33.02-48.47 0.52-1.29 0.52-1.29 1.05-2.6q0.44-1.13 0.9-2.31c1.1-2.2 2.07-3.5 4.01-5.01 4.76-0.54 6.88-0.72 10.94 1.88 3.06 3.15 3.06 3.15 3.05 5.96-0.6 5.87-2.09 10.93-4.24 16.41q-0.47 1.24-0.95 2.51-2.07 5.45-4.27 10.83c-4.34 10.69-7.88 21.85-5.53 33.41 0.84 2.26 0.84 2.26 3.44 2.88 10.58 0.37 19.63-7.49 27.13-14.17 15.26-14.68 24.94-31.88 32.42-51.52q0.53-1.35 1.06-2.74 0.46-1.21 0.93-2.46c1.02-1.99 1.02-1.99 4.02-3.99 4.02-0.45 6.3-0.38 9.87 1.56 2.81 3.22 2.87 5.19 3.13 9.44-0.44 2.86-1.22 5.58-2.05 8.35-0.34 1.16-0.34 1.16-0.67 2.35q-1.06 3.68-2.16 7.36-1.06 3.69-2.12 7.38-0.66 2.29-1.34 4.57c-2.67 9.16-4.92 19.99-0.66 28.99 2.99 1.5 4.64 1.43 8 1 13.08-6.55 23.04-19.45 28-33 0.8-3.25 1.34-6.51 1.87-9.81 1.79-9.88 4.28-19.32 12.13-26.19 3.64-1.21 6.18-1.4 10-1 2.94 2.06 2.94 2.06 5 5 0.63 6.16-1.06 11.29-2.94 17.06-2.51 7.85-2.51 7.85-4.06 15.94 5.25 4.31 10.4 4.62 17 4 4.3-0.53 7.44-1.48 11-4 2.83-3.66 4.8-7.83 6.88-11.95 2.68-5.28 6.16-9.66 10.12-14.05q0.91-1.04 1.86-2.1c8.75-9.35 20.16-17.11 33.16-18.14 8.87-0.2 15.01 0.87 21.86 6.68 4.41 5.32 6.59 9.86 6.45 16.9-1.31 10.62-7.27 18.07-15.33 24.66-3.21 2.3-6.49 4.2-10 6q-1.19 0.64-2.41 1.3c-5.86 2.93-11.92 4.8-18.21 6.51q-1.18 0.33-2.39 0.67c-5.47 1.41-10.35 1.72-15.99 1.52 1.3 7.81 1.3 7.81 6 14 8.83 4.74 19.11 4.09 28.56 1.44 9.79-3.39 18.61-8.31 26.54-14.96 1.9-1.48 1.9-1.48 4.08-2.49 2.17-0.91 2.17-0.91 2.82-3.99 3.28-3.65 6.39-6.66 11.25-7.69 3.46 0.87 4.69 1.79 6.75 4.69 1 2.88 1 2.88 1 6-1.2 2.41-2.29 3.97-4 6q-0.88 1.11-1.78 2.25c-13.85 16.53-35.12 28.01-56.63 29.97-12.7 0.8-24.66-0.14-34.84-8.59-5.75-5.36-10.3-10.79-10.93-18.92-0.01-1.9 0.08-3.81 0.18-5.71q-0.75 0.24-1.52 0.48c-9.61 2.02-19.87 1.33-28.48-3.48q-1.48-0.98-3-2c-0.57 0.96-0.57 0.96-1.14 1.95-8.09 13.26-19.99 29.95-35.86 34.05-9.12 0.75-15.93 0.6-23.48-4.76-5.85-5.19-8.7-12.82-9.39-20.49q-0.11-2.37-0.13-4.75-0.78 0.99-1.58 2.02c-10.81 13.53-23.83 29.19-42.1 31.29-7.54 0.34-13.66-1.03-19.36-6.15-5.42-5.83-7.1-11.08-7.58-19.03-0.12-1.73-0.12-1.73-0.23-3.5q-0.07-1.29-0.15-2.63-3.92 3.89-7.76 7.87c-10.52 10.87-24 22.96-39.93 23.44-6.85-0.08-11.94-2.35-17.18-6.68-5.32-6.58-6.45-12.39-6.13-20.63 2.02-15.03 9.44-28.53 16-42q-2.87-0.02-5.73-0.03c-1.6-0.01-1.6-0.01-3.23-0.02-3.45 0.06-6.65 0.43-10.04 1.05-0.37 1-0.37 1-0.75 2.03-4.76 11.29-11.65 21.42-19.25 30.97q-0.89 1.2-1.82 2.43c-9.34 12.29-23.99 30.26-40.18 32.57-8.49 0.86-14.93-0.02-22-5-7.1-6.05-8.9-13.56-9.69-22.56q-0.17-2.72-0.31-5.44-0.56 0.87-1.14 1.77c-9.36 13.93-20.87 27.21-37.86 31.23-7.57 1.03-14.44 0.03-21-4-7.4-6.18-10.4-12.77-11.31-22.22-0.73-19.58 7.72-37.27 20.31-51.78q0.99-1.48 2-3 0.99 0 2 0 0.4-0.9 0.81-1.82c4.61-8.47 16.48-14 25.19-17.18 10.89-2.55 23.02-0.95 32.73 4.57q1.2 0.68 2.43 1.38 0.91 0.52 1.84 1.05c6.63-14.12 12.65-28.37 18.19-42.95q3.06-8.01 6.15-16.01 0.6-1.56 1.22-3.16c3.13-8.11 6.32-16.2 9.63-24.25q1.08-2.64 2.16-5.28c4.15-10.01 4.15-10.01 7.65-14.35 3.94-1.31 7.3-1.62 11.25-0.19zm-104.25 128.19c-0.94 0.91-0.94 0.91-1.91 1.84-9.81 10.21-17.04 26-17.65 40.1 0.15 4.08 0.43 5.83 2.5 9.44 3.62 1.92 5.55 2.17 9.54 1.44 19.89-6.5 32.83-29.14 42.77-46.13q0.7-1.19 1.41-2.41c2.12-3.72 3.89-6.94 4.34-11.28-15.51-11.35-28.63-5.33-41 7zm407.27 5.95c-2.93 4.22-5.55 8.2-7.27 13.05 13.25-0.69 25.75-5.67 35.13-15.16 4.6-5.14 6.25-7.72 5.87-14.84-2.3-2.3-2.86-2.37-6-2.5-11.33 0.29-21.51 10.78-27.73 19.45zm-185.89-123.39c4.27 0.52 5.76 1.25 8.62 4.44 1.98 5.42 2.25 10.21 2.13 15.94q-0.02 1.16-0.03 2.36-0.04 2.85-0.1 5.7 0.99-0.32 2.02-0.66c7.6-2.29 15.56-4.28 23.11-0.96 2.46 2.14 2.81 3.18 3.25 6.43-0.52 4.39-1.97 5.41-5.38 8.19-12.43 9-12.43 9-17 9q0.52 1.01 1.06 2.05 0.68 1.33 1.38 2.7 0.67 1.32 1.37 2.67c2.62 5.68 2.83 11.39 2.19 17.58-1.56 3.25-1.56 3.25-4 5-4.45 0.25-7.17-0.83-10.56-3.56-3.21-2.97-5.72-6.3-8.18-9.9-0.62-0.76-0.62-0.76-1.26-1.54-2.24-0.23-2.24-0.23-4.12 2q-1.45 1.5-2.88 3-2.06 2.1-4.12 4.19-0.99 1-2.01 2.04c-2.56 2.43-4.27 3.69-7.81 4.15-3.74-0.46-4.76-1.48-7.06-4.38-1.91-3.81-1.45-7.52-0.25-11.47 1.91-4.95 4.11-9.27 7.25-13.53q-1.29-0.37-2.61-0.75c-3.63-1.34-6.44-3.03-9.64-5.19q-1.55-1.03-3.14-2.09c-2.61-1.97-2.61-1.97-4.61-4.97-0.36-3.35-0.36-5.33 1.25-8.31 3.32-3.21 7.69-2.95 12.09-2.92 5.02 0.44 9.83 1.86 14.66 3.23q0.36-1.66 0.73-3.37c5.82-26.05 5.82-26.05 13.65-27.07z"/>
</svg>