<?xml version="1.0" encoding="UTF-8"?>
<svg version="1.1" xmlns="http://www.w3.org/2000/svg" width="1024" height="1024">
<path d="M0 0 C3.3911885 2.32028687 3.91756309 3.59934808 4.75390625 7.6640625 C5.21375845 12.10163619 4.20415762 15.65456064 2.5625 19.75 C2.10701782 20.93335938 2.10701782 20.93335938 1.64233398 22.140625 C-5.58846295 40.45752155 -14.00036051 58.35454235 -22.24609375 76.23046875 C-45.23227475 120.79069543 -45.23227475 120.79069543 -52 169 C-51.34 169.66 -50.68 170.32 -50 171 C-41.71435238 171 -34.55565335 161.99041832 -29.1418457 156.58056641 C-14.53018279 141.42009877 -4.69014198 123.66275912 2.30004883 103.9675293 C2.60966553 103.10683838 2.91928223 102.24614746 3.23828125 101.359375 C3.50680908 100.59077148 3.77533691 99.82216797 4.05200195 99.03027344 C5.08969974 96.80789518 6.1127085 95.55420535 8 94 C10.9624043 92.99008944 12.95309932 92.58038337 15.91015625 93.765625 C20.70104462 96.40208924 20.70104462 96.40208924 22 99 C22.57778325 105.64450733 20.75782965 111.62786752 19 118 C19.4125 117.5153125 19.825 117.030625 20.25 116.53125 C38.23326134 95.65782166 38.23326134 95.65782166 49.70703125 94.796875 C56.49408881 94.69442885 61.47127309 94.624696 66.6171875 99.546875 C72.43791133 105.84105483 73.4649287 111.96893931 73.3125 120.390625 C72.62310288 128.35316175 70.11132438 135.89018379 67.46875 143.390625 C63.98988652 153.29258028 61.82778184 162.52427809 61 173 C68.36521273 171.17175571 73.2833665 167.89557303 79 163 C79.64582031 162.49855469 80.29164063 161.99710938 80.95703125 161.48046875 C97.96665375 147.79655656 108.40084083 126.2188318 116.90625 106.66796875 C120.82031322 97.78645785 120.82031322 97.78645785 125 95 C128.53139069 95.15353873 130.76644479 95.87306782 133.875 97.5625 C136.39781982 100.45632273 136.33469072 102.10784549 136.22705078 105.8527832 C135.86806718 109.24768725 134.75595948 112.14921906 133.5 115.3125 C133.23590332 115.98982178 132.97180664 116.66714355 132.69970703 117.36499023 C130.87155871 122.00061445 128.8979694 126.57055953 126.91796875 131.14282227 C121.32907864 144.10899499 116.63223652 156.58242757 118 171 C118.33 171.66 118.66 172.32 119 173 C131.85004351 172.38809317 140.57082691 165.2460727 149 156 C152.2049216 152.06550275 155.05037817 147.87990152 157.87695312 143.66943359 C170.41424258 125.03248027 187.1149231 106.31570526 209.8125 100.5625 C219.11347931 99.01805694 228.21221227 99.64854859 236.125 105.1875 C237.053125 106.0846875 237.053125 106.0846875 238 107 C238.53625 106.71125 239.0725 106.4225 239.625 106.125 C242.4639609 104.78022905 244.91651091 103.6783676 248 103 C251.32885891 104.28033035 253.48220086 105.48220086 256 108 C256.55964293 116.23581199 253.20415795 124.4437571 250.6875 132.125 C247.40872084 142.33756167 244.35763537 152.53077998 242 163 C242.82242188 162.35933594 243.64484375 161.71867188 244.4921875 161.05859375 C249.64633103 157.0605053 254.78141789 153.09328758 260.1875 149.4375 C268.97106759 143.3764085 277.87248381 136.43387865 281.2265625 126.00390625 C281.61344238 124.82022461 282.00032227 123.63654297 282.39892578 122.41699219 C282.59842834 121.78966187 282.79793091 121.16233154 283.003479 120.51599121 C283.63666795 118.52582668 284.28317119 116.54041862 284.93310547 114.55566406 C286.29998142 110.37404996 287.65053964 106.18726019 289 102 C299.8491591 68.37383963 299.8491591 68.37383963 307 54 C307.32709961 53.33484375 307.65419922 52.6696875 307.99121094 51.984375 C322.00521789 23.76495027 322.00521789 23.76495027 334.9375 17.875 C339.57587256 16.48348823 343.58877107 17.11850809 348 19 C352.59816874 21.91974973 355.37236792 24.72738903 357 30 C359.78565806 54.77940017 346.44104043 80.29058091 331.625 99.25 C326.91049326 105.14397832 321.81893604 110.68484315 316.62890625 116.16015625 C314.28602539 118.69102457 312.1135642 121.2768499 310 124 C311.55460938 123.25943359 311.55460938 123.25943359 313.140625 122.50390625 C314.5103271 121.85658128 315.88012375 121.20945634 317.25 120.5625 C318.27287109 120.07426758 318.27287109 120.07426758 319.31640625 119.57617188 C319.98027344 119.26357422 320.64414062 118.95097656 321.328125 118.62890625 C321.9355957 118.34088135 322.54306641 118.05285645 323.16894531 117.75610352 C328.86381604 115.40450156 334.94205578 115.19332858 341 116 C344.82058423 117.69659842 347.16755793 119.947224 348.74609375 123.83984375 C350.77465905 134.73553984 346.03558424 147.80555147 342.62646484 158.06445312 C341.08934689 162.87691423 340.79128464 166.94570373 341 172 C349.78451329 172 356.32834469 165.6492483 362.5 159.9375 C376.12881831 145.58792687 384.71421979 128.16165501 392 110 C391.2265625 110.02320313 390.453125 110.04640625 389.65625 110.0703125 C383.40307298 110.17865963 377.92833424 110.08589538 372 108 C369.67420899 104.51131349 369.58134543 103.10281481 370 99 C371.0625 96.75 371.0625 96.75 373 95 C378.73497792 92.99275773 384.40758755 92.40462514 390.4375 91.875 C391.35982422 91.78863281 392.28214844 91.70226562 393.23242188 91.61328125 C395.48780541 91.4029346 397.74356186 91.19865598 400 91 C400.3403125 90.14921875 400.680625 89.2984375 401.03125 88.421875 C401.78633503 86.53416243 402.54161793 84.64652651 403.30029297 82.76025391 C404.90719701 78.75918311 406.48712148 74.74929914 408.0390625 70.7265625 C408.38517578 69.8387207 408.73128906 68.95087891 409.08789062 68.03613281 C409.76808786 66.29080563 410.4415115 64.54282017 411.10742188 62.79199219 C412.86097515 58.31918641 414.49096019 54.41327654 418 51 C422.72805985 50.32456288 424.80884786 50.31572111 428.9375 52.6875 C431.2899853 55.32513504 431.59592764 56.54518134 432 60 C430.72405264 71.08816224 425.2532022 81.80924891 421 92 C421.92941406 91.96519531 422.85882812 91.93039062 423.81640625 91.89453125 C437.02121641 91.60537482 437.02121641 91.60537482 442 95 C443.95977018 98.52758633 444.13600902 100.29275309 443.375 104.25 C441.79796851 107.40406298 441.20571365 107.79216002 438 109 C435.34277344 109.31884766 435.34277344 109.31884766 432.359375 109.4140625 C430.75449219 109.47207031 430.75449219 109.47207031 429.1171875 109.53125 C428.00601563 109.5621875 426.89484375 109.593125 425.75 109.625 C424.62335937 109.66367187 423.49671875 109.70234375 422.3359375 109.7421875 C419.55745452 109.83637336 416.77897666 109.92199586 414 110 C398.9194248 138.6858554 398.9194248 138.6858554 396 170 C397.29441138 172.79504081 397.29441138 172.79504081 400 174 C410.1139128 175.16061294 418.08769524 169.8586333 426 164 C427.01371086 162.67706082 428.01760374 161.34635633 429 160 C429.66 160 430.32 160 431 160 C431.28875 159.38125 431.5775 158.7625 431.875 158.125 C433 156 433 156 435 154 C438.7413523 153.50115303 440.56648796 153.75497146 443.875 155.625 C446 158 446 158 446.6875 160.75 C444.50042504 171.08889979 432.98436117 179.80813043 424.63671875 185.39453125 C415.55449151 190.9245985 406.94192439 194.27924194 396.25 192.3125 C389.43597574 190.50102524 385.05575105 186.69997444 381 181 C378.6155571 176.14206861 377.55776217 171.35451687 377 166 C376.46632813 166.61746094 375.93265625 167.23492187 375.3828125 167.87109375 C367.56021405 176.76287088 359.78966586 184.84349302 349 190 C348.195625 190.433125 347.39125 190.86625 346.5625 191.3125 C341.58725846 192.6473209 336.56982761 193.02353818 331.71484375 191.08984375 C326.83162401 188.25118704 323.20749285 184.73670086 321.421875 179.2109375 C319.49332808 169.10392306 321.47511322 159.62641372 324.41796875 149.95703125 C325.44198083 146.51387654 326.3375042 143.03652551 327.25 139.5625 C327.83333333 137.375 328.41666667 135.1875 329 133 C314.11702899 137.21684179 301.96044338 145.65011916 294.3359375 159.27734375 C290.74672109 166.59220876 288.21089228 174.17344132 286 182 C283.48064983 190.29076987 283.48064983 190.29076987 279 193 C274.9213378 193.07155548 272.83767048 192.6613188 269.625 190.125 C266.53986632 186.09059442 266.44239449 181.8790482 267 177 C269.79069767 165.41860465 269.79069767 165.41860465 272 161 C263.29485009 167.20119334 254.59861978 173.42172146 246.125 179.9375 C245.27977783 180.572323 245.27977783 180.572323 244.41748047 181.2199707 C238.49892965 185.83303867 235.73074615 191.02884103 233.51953125 198.1015625 C233.07821299 199.48342317 232.63654938 200.86517359 232.19458008 202.24682617 C231.96928619 202.96212494 231.74399231 203.67742371 231.51187134 204.41439819 C227.20424118 218.03013349 222.5123324 231.25635518 216 244 C215.66935547 244.64904297 215.33871094 245.29808594 214.99804688 245.96679688 C204.97369659 265.27811979 189.61113212 285.57474775 169 294 C162.29298192 296.09761322 154.36517552 295.93280841 147.9140625 293.10546875 C142.89964447 290.2093865 139.07628114 286.71532306 136 281.8125 C133.40241959 271.9092247 134.66547968 262.2804651 139.44140625 253.28515625 C143.55339728 246.48272098 148.50960219 240.71802624 154 235 C154.72574219 234.21109375 155.45148437 233.4221875 156.19921875 232.609375 C167.02799537 221.21066276 180.19189251 212.45043579 193.15795898 203.68457031 C208.188396 194.50953067 208.188396 194.50953067 217.60546875 180.5234375 C217.86650391 179.688125 218.12753906 178.8528125 218.39648438 177.9921875 C218.65751953 177.12851562 218.91855469 176.26484375 219.1875 175.375 C219.46013672 174.50359375 219.73277344 173.6321875 220.01367188 172.734375 C221.45872583 168.44310109 221.45872583 168.44310109 222 164 C221.46632813 164.68964844 220.93265625 165.37929688 220.3828125 166.08984375 C211.71467786 177.02249107 201.47373153 188.41440136 187 191 C178.08902684 191.65355515 171.52882926 190.89982666 164.3125 185.3125 C160.79022345 182.13134483 158.4727917 178.51900062 157 174 C157 172.68 157 171.36 157 170 C156.34 170 155.68 170 155 170 C154.773125 170.55945313 154.54625 171.11890625 154.3125 171.6953125 C149.12823449 180.79863586 137.98056916 187.73150825 128.375 191.375 C121.23348357 192.69750304 115.43911156 192.44804038 109 189 C100.88872349 182.36350104 99.24330605 174.96280773 98 165 C97.28714844 165.78503906 96.57429688 166.57007813 95.83984375 167.37890625 C93.35921708 170.10538036 90.86161003 172.81574757 88.35839844 175.52148438 C87.27033882 176.70575631 86.1987624 177.90516382 85.1328125 179.109375 C79.53066267 185.1853385 70.91619939 191.43345657 62.51171875 192.23828125 C56.44391917 192.39773933 52.69788859 192.25047063 48 188 C41.41000725 181.11046213 40.43217342 174.74362541 40.55078125 165.46484375 C41.37670679 153.935757 46.08024572 142.60289223 49.8125 131.75 C51.99588586 125.36779518 53 119.75619956 53 113 C41.97241384 113.97253749 32.58452586 124.75597359 25.62109375 132.80859375 C13.91041497 146.83796088 4.90029454 162.43732018 -2.63867188 179.03149414 C-3.03376953 179.89250732 -3.42886719 180.75352051 -3.8359375 181.640625 C-4.18188965 182.40922852 -4.5278418 183.17783203 -4.88427734 183.96972656 C-6.05452774 186.09922377 -7.09780321 187.48979604 -9 189 C-13.98088443 189.5534316 -17.01544708 189.07379796 -21 186 C-23.18877974 182.7168304 -23.20692788 182.29228597 -22.6875 178.625 C-22.58824219 177.87476563 -22.48898437 177.12453125 -22.38671875 176.3515625 C-21.98152164 173.88763666 -21.50545282 171.445182 -21 169 C-21.8353125 170.06927734 -21.8353125 170.06927734 -22.6875 171.16015625 C-29.96979858 180.29993302 -38.19819397 190.3426898 -50.42578125 192.41015625 C-55.31580839 192.59918251 -58.91709138 191.84028426 -63 189 C-70.24428962 182.07665992 -72.22544605 175.94736789 -72.625 166.125 C-72.66367187 165.34125 -72.70234375 164.5575 -72.7421875 163.75 C-72.83566622 161.83368633 -72.91888495 159.91687681 -73 158 C-73.4846875 158.68964844 -73.969375 159.37929688 -74.46875 160.08984375 C-83.46255068 172.69846047 -94.75749112 187.87866377 -111 191 C-118.93318006 191.5959655 -126.51772249 192.15966035 -133 187 C-138.87377027 181.73263112 -142.52727721 175.84457268 -143.171875 167.875 C-143.18498755 166.24904324 -143.10357706 164.62270734 -143 163 C-145.86659337 165.7797269 -148.48037831 168.58981049 -151 171.6875 C-158.56332849 180.4093252 -169.33814404 189.26463749 -181 190.875 C-188.76071353 191.33779484 -194.16577362 189.60234836 -200.23828125 184.7109375 C-204.82234669 180.25900698 -206.91102893 175.04476195 -207.05078125 168.69140625 C-207.06122666 166.45957078 -207.04375212 164.23135797 -207 162 C-207.66 162 -208.32 162 -209 162 C-209.18691406 162.67289063 -209.37382812 163.34578125 -209.56640625 164.0390625 C-211.60696813 168.25362899 -214.62402868 171.11163404 -217.9375 174.375 C-218.6082959 175.04039795 -219.2790918 175.7057959 -219.97021484 176.39135742 C-227.53539272 183.72851647 -236.3995185 191.26552987 -247.4375 191.3125 C-253.6909574 191.16980366 -257.12311427 189.78958872 -261.6875 185.4375 C-267.0354877 178.43336127 -267.8909384 169.50351211 -267 161 C-265.35934841 150.15347004 -262.68832148 139.63461217 -259.58642578 129.12719727 C-258.0153187 123.60207488 -257.53503117 118.76561355 -258 113 C-266.81483154 113.91232221 -272.57273121 119.97087558 -278.02734375 126.5234375 C-288.73517586 140.03307772 -296.37589854 155.07703299 -303.1796875 170.8359375 C-309.54550971 185.54550971 -309.54550971 185.54550971 -313 189 C-316.69826368 190.09266882 -318.54158702 190.17078131 -322.1875 188.8125 C-326.59090909 185.97474747 -326.59090909 185.97474747 -328 183 C-329.04026694 173.80764114 -325.56880411 165.61655765 -322.625 157.0625 C-316.80359855 140.98159519 -316.80359855 140.98159519 -314.8125 124.125 C-314.81894531 123.24070312 -314.82539063 122.35640625 -314.83203125 121.4453125 C-314.98816604 119.17228038 -315.36553132 117.18257226 -316 115 C-338.08877941 123.48934433 -349.68735157 150.01949228 -359 170 C-360.74282033 174.12426952 -362.36519667 178.28475627 -363.82128906 182.51904297 C-365.2424274 186.56374653 -366.58028025 189.34314081 -370 192 C-373.93411967 193.07294173 -376.05546078 193.41979521 -379.8125 191.75 C-382.47354992 189.62116007 -383.863003 187.99243177 -384.3359375 184.56640625 C-384.57866773 165.90045163 -378.44121699 148.21436112 -372.5 130.75 C-371.16924535 126.80988462 -369.84691665 122.86705316 -368.53125 118.921875 C-368.21639648 117.98323608 -367.90154297 117.04459717 -367.57714844 116.07751465 C-365.26863312 109.09204318 -363.44269008 102.0875883 -361.90429688 94.89550781 C-361 92 -361 92 -358 90 C-351.05322129 89.32773109 -351.05322129 89.32773109 -347.0625 91.875 C-343.9207975 95.11190561 -343.75183329 97.23857993 -343.80859375 101.72265625 C-344.13830373 105.64553214 -345.30281303 109.26607091 -346.5 113 C-346.73847656 113.77472656 -346.97695313 114.54945313 -347.22265625 115.34765625 C-347.80513197 117.23487758 -348.40115303 119.11790951 -349 121 C-348.66379639 120.56244385 -348.32759277 120.1248877 -347.98120117 119.67407227 C-329.32316151 95.5747642 -329.32316151 95.5747642 -317.38671875 93.55859375 C-312.13027696 93.32277654 -308.71453388 93.58662383 -304.5625 97 C-297.8558233 103.85723475 -296.01885546 111.82338426 -294 121 C-293.54109375 120.40832031 -293.0821875 119.81664062 -292.609375 119.20703125 C-291.99578125 118.41683594 -291.3821875 117.62664062 -290.75 116.8125 C-290.14671875 116.03519531 -289.5434375 115.25789063 -288.921875 114.45703125 C-287.97054687 113.24080078 -287.97054687 113.24080078 -287 112 C-286.05253906 110.75476563 -286.05253906 110.75476563 -285.0859375 109.484375 C-278.51776701 101.66161015 -269.91753461 95.1180755 -259.62109375 93.6640625 C-254.46492588 93.43722601 -250.49715527 94.3350191 -246 97 C-240.89018682 101.80801159 -237.38800503 106.2641118 -236.64648438 113.40380859 C-236.50392683 123.86462881 -238.38281813 132.68535071 -241.5 142.625 C-244.76447898 153.0878864 -246.70496498 161.9185598 -246 173 C-226.79908498 167.35281794 -211.45563396 147.79317898 -202 131 C-196.40030731 120.27729733 -191.06446718 109.34689726 -186.97021484 97.9543457 C-186 96 -186 96 -183 94 C-178.35632001 93.49525218 -175.73287976 94.20034018 -172 97 C-169.5993244 100.6010134 -169.28042507 102.84922657 -170 107 C-171.48925343 111.43665515 -173.33467157 115.70473959 -175.1875 120 C-176.20383631 122.42439402 -177.21688746 124.85016799 -178.2265625 127.27734375 C-178.7102832 128.43862793 -179.19400391 129.59991211 -179.69238281 130.79638672 C-184.84446514 143.41879604 -190.84605576 158.27727305 -187 172 C-175.29997326 171.34999851 -167.87952031 165.47124516 -159.76171875 157.62109375 C-157 155 -157 155 -154.37890625 152.9375 C-148.32752736 148.00895496 -144.02588622 141.09806711 -139.6875 134.6875 C-127.69489139 117.08708004 -113.69391332 101.89797111 -93 95 C-80.00404995 93.80567071 -70.18158885 95.20143814 -59 102 C-49.04324589 82.62794668 -40.00297156 62.80692837 -31.375 42.8125 C-31.10709656 42.19205811 -30.83919312 41.57161621 -30.56317139 40.93237305 C-28.17426953 35.39683529 -25.79207278 29.85844287 -23.42626953 24.31298828 C-21.93816106 20.8300913 -20.43871529 17.35226319 -18.9375 13.875 C-18.49647949 12.83190674 -18.05545898 11.78881348 -17.60107422 10.71411133 C-16.97676514 9.27394653 -16.97676514 9.27394653 -16.33984375 7.8046875 C-15.98269287 6.96921387 -15.62554199 6.13374023 -15.25756836 5.27294922 C-11.37638594 -1.74196212 -7.32915036 -2.70021329 0 0 Z M337 36 C323.61203281 49.38796719 318.01224803 70.76069605 312.0625 88.1875 C311.64814697 89.38286377 311.23379395 90.57822754 310.80688477 91.80981445 C310.42846436 92.93863037 310.05004395 94.06744629 309.66015625 95.23046875 C309.31605713 96.24520264 308.97195801 97.25993652 308.61743164 98.30541992 C307.99241674 101.03309469 308.04579683 102.4090278 309 105 C323.97797059 84.38032716 338.22297393 63.2634811 339 37 C338.34 36.67 337.68 36.34 337 36 Z M-109.453125 127.8671875 C-117.55227804 138.19226671 -125.60699139 152.34057322 -124 166 C-122.41772398 170.30843924 -122.41772398 170.30843924 -119 173 C-111.54108684 173.74589132 -106.86017254 171.27932517 -101.2109375 166.77734375 C-90.40362964 157.49752059 -82.09045754 146.3272806 -74.859375 134.12109375 C-72.4498467 130.07652839 -69.85572547 126.16240841 -67.25 122.2421875 C-65.75653281 119.99112755 -65.75653281 119.99112755 -66 117 C-67.269553 116.35165346 -68.54069706 115.70642185 -69.8125 115.0625 C-70.52019531 114.70285156 -71.22789062 114.34320313 -71.95703125 113.97265625 C-86.91842564 106.84954496 -100.00329324 116.82232044 -109.453125 127.8671875 Z M185.83203125 136.65234375 C179.33917902 145.63712221 173.58991127 155.57196743 175 167 C176.7119187 170.76398568 176.7119187 170.76398568 180 173 C186.68406865 173.83550858 191.4122991 171.59447625 197 168 C200.52534723 165.18498393 203.76803557 162.14401982 207 159 C207.59296875 158.46890625 208.1859375 157.9378125 208.796875 157.390625 C217.71686845 149.1502501 231.34631443 133.42002577 232 121 C214.14409928 110.0117534 197.34682662 122.56487338 185.83203125 136.65234375 Z M-19 164 C-18 166 -18 166 -18 166 Z M209 209 C204.63894373 212.47825135 200.28275588 215.96244584 195.93164062 219.453125 C194.30681771 220.75429765 192.67737694 222.04970084 191.046875 223.34375 C179.69756285 232.4503837 168.94532885 241.68762599 161 254 C160.49855469 254.7425 159.99710938 255.485 159.48046875 256.25 C156.09169923 261.40639858 153.65236724 265.91949326 154.1875 272.25 C154.59515019 276.23256629 154.59515019 276.23256629 158 278 C165.19460858 278 169.38455721 275.28243114 175 271 C176.5159375 269.88625 176.5159375 269.88625 178.0625 268.75 C192.11294976 256.51875448 200.87750351 237.45294288 207.5 220.375 C207.7676416 219.69977295 208.0352832 219.0245459 208.31103516 218.32885742 C209.64782032 214.74582003 210.13935444 212.63342909 209 209 Z " fill="#000000" transform="translate(475,296)"/>
<path d="M0 0 C1.75 1.1875 1.75 1.1875 3.75 4.1875 C4.64846282 12.38906424 2.07404079 18.50654175 -1.0625 26 C-1.57057591 27.24680738 -2.07696954 28.49430144 -2.58178711 29.74243164 C-3.62428155 32.31631488 -4.67379212 34.8871598 -5.72851562 37.45605469 C-7.99193803 42.98535345 -10.14516822 48.55752308 -12.3125 54.125 C-16.09281304 63.7792406 -19.93627153 73.407247 -23.79946899 83.02857971 C-38.96257793 119.45930081 -38.96257793 119.45930081 -50.25 157.1875 C-50.45109375 158.06019531 -50.6521875 158.93289063 -50.859375 159.83203125 C-51.32477423 162.6383886 -51.45646434 165.34317023 -51.5 168.1875 C-51.52578125 169.198125 -51.5515625 170.20875 -51.578125 171.25 C-51.19193395 174.70732939 -50.41742484 176.47350716 -48.25 179.1875 C-45.45473361 180.85189189 -44.10432204 181.40143947 -40.92578125 180.60546875 C-34.07657002 177.03935051 -28.70010978 172.63760978 -23.25 167.1875 C-22.425 166.3625 -21.6 165.5375 -20.75 164.6875 C-6.28821902 149.50262997 4.26729495 130.60267106 10.36791992 110.6105957 C10.62420166 109.80195068 10.8804834 108.99330566 11.14453125 108.16015625 C11.35956299 107.44093994 11.57459473 106.72172363 11.79614258 105.98071289 C13.04787653 103.62750433 14.28658758 103.10118491 16.75 102.1875 C19.00390625 102.10546875 19.00390625 102.10546875 21.3125 102.375 C22.07691406 102.45105469 22.84132813 102.52710938 23.62890625 102.60546875 C26.19397723 103.30932801 27.19716376 104.03515104 28.75 106.1875 C29.14078556 108.91257798 28.88616953 111.41871956 28.75 114.1875 C29.31154785 114.02668945 29.8730957 113.86587891 30.45166016 113.70019531 C34.62349943 112.7695747 38.86701161 112.96083144 43.125 112.9375 C44.05828125 112.916875 44.9915625 112.89625 45.953125 112.875 C51.29399892 112.84474009 55.18398744 113.08551051 59.75 116.1875 C62.47170068 120.27005101 62.32218401 123.39389093 61.75 128.1875 C60.85127974 131.17552374 59.56756546 133.89407664 58.1875 136.6875 C57.45243915 138.25688294 56.71941571 139.82722152 55.98828125 141.3984375 C55.42874756 142.58518066 55.42874756 142.58518066 54.85791016 143.79589844 C53.09833147 147.59423092 51.47615127 151.44524317 49.875 155.3125 C49.58939209 155.98603516 49.30378418 156.65957031 49.00952148 157.35351562 C46.25655588 164.00355787 43.91037866 170.91078172 44.75 178.1875 C46.20997987 180.81466577 46.20997987 180.81466577 48.75 182.1875 C58.58294434 182.42161772 67.7822778 174.24818144 74.75 168.1875 C75.74515625 167.32640625 76.7403125 166.4653125 77.765625 165.578125 C93.06665887 152.09463055 103.26550538 135.93494288 110.79467773 117.10620117 C111.31203491 115.82193237 111.31203491 115.82193237 111.83984375 114.51171875 C112.13753662 113.74947998 112.43522949 112.98724121 112.74194336 112.2019043 C113.84269899 110.00225917 114.80543267 108.69383025 116.75 107.1875 C121.5111244 106.6499537 123.62979695 106.47247677 127.6875 109.0625 C130.75359107 112.22150292 130.75359107 112.22150292 130.74316406 115.02636719 C130.13859502 120.89302212 128.64652783 125.96147906 126.5 131.4375 C126.18643555 132.26668945 125.87287109 133.09587891 125.54980469 133.95019531 C124.17182991 137.58022283 122.75021905 141.18696402 121.28125 144.78125 C116.94140084 155.47209793 113.39898415 166.62833875 115.75 178.1875 C116.59226928 180.44764889 116.59226928 180.44764889 119.1875 181.0625 C129.77493222 181.43398885 138.82143991 173.57594392 146.31640625 166.90234375 C161.57644735 152.21544974 171.26275452 135.01807762 178.74438477 115.37329102 C179.09428467 114.46893311 179.44418457 113.5645752 179.8046875 112.6328125 C180.10874512 111.82344238 180.41280273 111.01407227 180.72607422 110.18017578 C181.75 108.1875 181.75 108.1875 184.75 106.1875 C188.77035732 105.74079363 191.04621811 105.80500984 194.625 107.75 C197.43271319 110.97061219 197.48782371 112.93879655 197.75 117.1875 C197.31420467 120.05055746 196.53010121 122.76526555 195.6953125 125.53515625 C195.36380692 126.69754066 195.36380692 126.69754066 195.02560425 127.88340759 C194.32165741 130.34288518 193.59918327 132.79641305 192.875 135.25 C192.16166722 137.70808015 191.45227265 140.16723834 190.74581909 142.62730408 C190.30655373 144.15242904 189.86272602 145.67624988 189.41360474 147.19850159 C186.74325482 156.36011735 184.48728993 167.1884454 188.75 176.1875 C191.74181417 177.68340709 193.3916206 177.61493011 196.75 177.1875 C209.83418415 170.63331533 219.78775134 157.74003087 224.75 144.1875 C225.55402973 140.94205377 226.09259509 137.67437467 226.625 134.375 C228.40821093 124.50156573 230.89567577 115.0600337 238.75 108.1875 C242.38782632 106.97489123 244.92735999 106.79205448 248.75 107.1875 C251.6875 109.25 251.6875 109.25 253.75 112.1875 C254.37985317 118.34431474 252.68540261 123.4770027 250.8125 129.25 C248.29699199 137.09958047 248.29699199 137.09958047 246.75 145.1875 C252.00146763 149.50120555 257.14548347 149.80257711 263.75 149.1875 C268.05028926 148.66156534 271.19365348 147.70936656 274.75 145.1875 C277.58032913 141.52629985 279.55416792 137.35750268 281.6328125 133.2421875 C284.30730911 127.95436757 287.79447271 123.57900725 291.75 119.1875 C292.36230469 118.49398437 292.97460938 117.80046875 293.60546875 117.0859375 C302.35878356 107.73703632 313.76823223 99.97621481 326.765625 98.94921875 C335.63682555 98.74565255 341.78073211 99.82225114 348.625 105.625 C353.04052994 110.94960964 355.21537325 115.48583963 355.078125 122.53125 C353.76673736 133.14724517 347.81311172 140.59791016 339.75 147.1875 C336.54086154 149.48334591 333.25934597 151.38950176 329.75 153.1875 C328.9559375 153.61546875 328.161875 154.0434375 327.34375 154.484375 C321.48340641 157.4145468 315.42486476 159.28374356 309.125 161 C308.33746338 161.21922119 307.54992676 161.43844238 306.73852539 161.66430664 C301.27466808 163.07744198 296.39127965 163.38455069 290.75 163.1875 C292.04707443 171.00093487 292.04707443 171.00093487 296.75 177.1875 C305.58356952 181.931454 315.85679928 181.28083846 325.3125 178.625 C335.10022274 175.23923477 343.91653734 170.320366 351.84765625 163.66796875 C353.75 162.1875 353.75 162.1875 355.93359375 161.17578125 C358.10397206 160.26256806 358.10397206 160.26256806 358.75 157.1875 C362.02837751 153.53355656 365.13611767 150.52889819 370 149.5 C373.45667747 150.36416937 374.68780959 151.28515794 376.75 154.1875 C377.75 157.0625 377.75 157.0625 377.75 160.1875 C376.54628696 162.59492608 375.45591363 164.15492206 373.75 166.1875 C373.1621875 166.93 372.574375 167.6725 371.96875 168.4375 C358.12159052 184.97142177 336.85475717 196.45070389 315.34375 198.40625 C302.63609573 199.21053192 290.68213328 198.26594839 280.49609375 189.81640625 C274.75266958 184.45844679 270.1989793 179.02423095 269.57421875 170.90234375 C269.56413503 168.99652159 269.64804715 167.09061991 269.75 165.1875 C269.24726562 165.34605469 268.74453125 165.50460937 268.2265625 165.66796875 C258.61932788 167.68336655 248.36231607 166.99355826 239.75 162.1875 C238.76 161.5275 237.77 160.8675 236.75 160.1875 C236.18345703 161.15236328 236.18345703 161.15236328 235.60546875 162.13671875 C227.52495832 175.40238107 215.62207557 192.08265287 199.75 196.1875 C190.62669423 196.93513432 183.82077969 196.7889514 176.26953125 191.42578125 C170.42478507 186.23347185 167.5693254 178.60483618 166.875 170.9375 C166.80794655 169.3550385 166.75623571 167.77136921 166.75 166.1875 C166.22792969 166.85394531 165.70585938 167.52039063 165.16796875 168.20703125 C154.36351787 181.73624733 141.337683 197.3950299 123.06640625 199.49609375 C115.52886012 199.84108546 109.40503026 198.47213522 103.70703125 193.3515625 C98.28752781 187.51861241 96.61174347 182.26264329 96.125 174.3125 C96.01285156 172.58386719 96.01285156 172.58386719 95.8984375 170.8203125 C95.84945312 169.95148438 95.80046875 169.08265625 95.75 168.1875 C93.13620564 170.78701133 90.54587205 173.39942351 87.98828125 176.0546875 C77.4667813 186.93048285 63.99163533 199.01263515 48.0625 199.5 C41.20762451 199.41911651 36.11873802 197.14428359 30.875 192.8125 C25.55561947 186.24150053 24.42752924 180.42799913 24.75 172.1875 C26.7731896 157.15310833 34.19208502 143.66114659 40.75 130.1875 C38.83856147 130.17392766 36.92709489 130.16426935 35.015625 130.15625 C33.41895996 130.14754883 33.41895996 130.14754883 31.79003906 130.13867188 C28.3388105 130.19410439 25.14005737 130.57112593 21.75 131.1875 C21.38068359 132.19103516 21.38068359 132.19103516 21.00390625 133.21484375 C16.24144036 144.50530027 9.34552912 154.64158185 1.75 164.1875 C1.15058594 164.99058594 0.55117188 165.79367187 -0.06640625 166.62109375 C-9.40936936 178.91021802 -24.05886872 196.87448125 -40.25 199.1875 C-48.74249308 200.04765265 -55.18032109 199.16525966 -62.25 194.1875 C-69.35097667 188.13740783 -71.1538966 180.62584991 -71.9375 171.625 C-72.05285946 169.81317795 -72.16102206 168.00080909 -72.25 166.1875 C-72.62769531 166.77015625 -73.00539063 167.3528125 -73.39453125 167.953125 C-82.75106433 181.88931947 -94.25977841 195.16600497 -111.25 199.1875 C-118.82474813 200.21656242 -125.68585575 199.21944953 -132.25 195.1875 C-139.65249264 189.00616686 -142.65276958 182.41684006 -143.55859375 172.96875 C-144.28621299 153.38917779 -135.83635075 135.69430332 -123.25 121.1875 C-122.59 120.1975 -121.93 119.2075 -121.25 118.1875 C-120.59 118.1875 -119.93 118.1875 -119.25 118.1875 C-118.981875 117.58679688 -118.71375 116.98609375 -118.4375 116.3671875 C-113.8255864 107.90189872 -101.96339522 102.37124056 -93.25 99.1875 C-82.36477253 96.63989357 -70.23333966 98.23709819 -60.52124023 103.7590332 C-59.71895493 104.2127681 -58.91666962 104.66650299 -58.09007263 105.13398743 C-57.48284866 105.48164658 -56.87562469 105.82930573 -56.25 106.1875 C-49.61936894 92.07034586 -43.60153146 77.81492786 -38.05935669 63.23770142 C-36.02622585 57.89426957 -33.96759332 52.5606727 -31.91015625 47.2265625 C-31.50850754 46.18427994 -31.10685883 45.14199738 -30.69303894 44.06813049 C-27.56000418 35.95282278 -24.37046005 27.86300942 -21.06048584 19.81814575 C-20.33697041 18.05948077 -19.61978862 16.29821425 -18.90283203 14.53686523 C-14.74705629 4.53144258 -14.74705629 4.53144258 -11.25 0.1875 C-7.31134079 -1.1253864 -3.95356946 -1.42767786 0 0 Z M-104.25 128.1875 C-105.19359375 129.09628906 -105.19359375 129.09628906 -106.15625 130.0234375 C-115.96661336 140.23513391 -123.195562 156.03033959 -123.8125 170.125 C-123.65566469 174.20761904 -123.38149929 175.95843671 -121.3125 179.5625 C-117.69002989 181.484627 -115.75749119 181.73259376 -111.76953125 181.01171875 C-91.8766769 174.50413384 -78.94142064 151.87151603 -69 134.875 C-68.53408447 134.08101807 -68.06816895 133.28703613 -67.58813477 132.46899414 C-65.46938761 128.74466207 -63.70058721 125.52873443 -63.25 121.1875 C-78.7637693 109.83596149 -91.88251343 115.86123838 -104.25 128.1875 Z M303.01782227 134.14233398 C300.08896464 138.3526039 297.46997629 142.33374493 295.75 147.1875 C308.99583679 146.50237051 321.50252226 141.51462035 330.8828125 132.03125 C335.48234605 126.89169025 337.13160826 124.31085421 336.75 117.1875 C334.44762265 114.88512265 333.88835735 114.82200103 330.75 114.6875 C319.42196156 114.97796252 309.24378535 125.46472172 303.01782227 134.14233398 Z " fill="#000000" transform="translate(393.25,513.8125)"/>
<path d="M0 0 C6.30423044 5.95399541 6.73499949 14.77293868 7 23 C6.82516369 25.41024348 6.47493696 27.62531522 6 30 C6.57105469 29.7834375 7.14210938 29.566875 7.73046875 29.34375 C14.71521887 26.94517126 21.63543504 25.9821333 29 27 C31.61002371 28.41762709 32.71051374 29.30602608 33.85546875 32.05078125 C34.7095299 37.86844487 34.7095299 37.86844487 32.94921875 40.67578125 C28.35990438 44.90068356 18.34714539 52 12 52 C12.433125 52.78761719 12.86625 53.57523437 13.3125 54.38671875 C17.25357083 62.09552627 19.88891601 69.27909558 18 78 C16.3359375 80.43359375 16.3359375 80.43359375 14 82 C10.78397387 82.17371886 8.88410038 81.66879474 6.30175781 79.71533203 C4.49696934 78.06170605 2.80655405 76.34106679 1.125 74.5625 C0.53203125 73.96373047 -0.0609375 73.36496094 -0.671875 72.74804688 C-5 68.2952639 -5 68.2952639 -5 66 C-5.72703125 66.63615234 -5.72703125 66.63615234 -6.46875 67.28515625 C-7.87850303 68.51869015 -9.28869 69.75172821 -10.69921875 70.984375 C-12.20507082 72.30359345 -13.70780765 73.62637845 -15.20703125 74.953125 C-15.90183594 75.56671875 -16.59664063 76.1803125 -17.3125 76.8125 C-18.26576172 77.65748047 -18.26576172 77.65748047 -19.23828125 78.51953125 C-21.83182346 80.69902681 -23.53362548 81.94046283 -26.9375 82.375 C-30.75971447 81.90697374 -31.63092613 80.97010741 -34 78 C-36.1685969 68.77642228 -32.31210595 60.95686216 -28 53 C-28.7734375 52.57589844 -29.546875 52.15179688 -30.34375 51.71484375 C-44.40978259 43.79399619 -44.40978259 43.79399619 -48 39 C-48.37890625 36.4609375 -48.37890625 36.4609375 -48 34 C-43.01530132 29.12607241 -39.37434322 27.72117402 -32.62890625 27.765625 C-27.92770068 28.1847518 -23.48796885 29.5906939 -19 31 C-18.75765625 29.73285156 -18.5153125 28.46570313 -18.265625 27.16015625 C-13.96704371 5.3315923 -13.96704371 5.3315923 -8 0 C-4.99733781 -1.5013311 -3.18669322 -0.8922741 0 0 Z " fill="#000000" transform="translate(307,266)"/>
<path d="M0 0 C4.27462149 1.81671413 6.76396923 4.51683537 8.75 8.6875 C10.31190945 15.7160925 10.65963223 22.87904966 10.5 30.0625 C13.39359228 30.16807846 13.39359228 30.16807846 15.7421875 29.578125 C19.06818049 28.95626795 22.24226853 28.85559212 25.625 28.8125 C26.84445312 28.78671875 28.06390625 28.7609375 29.3203125 28.734375 C32.5 29.0625 32.5 29.0625 34.3671875 30.453125 C36.71606576 33.79015205 37.19153104 35.99015056 36.5 40.0625 C31.28704883 46.74734327 22.90684872 50.34778471 15.5 54.0625 C15.84933594 54.73796875 16.19867187 55.4134375 16.55859375 56.109375 C17.01363281 57.00140625 17.46867188 57.8934375 17.9375 58.8125 C18.38996094 59.69421875 18.84242188 60.5759375 19.30859375 61.484375 C21.67065105 66.59571211 22.05691942 71.48336077 21.5 77.0625 C20.25587027 80.04841136 19.51405721 81.50302016 16.6875 83.0625 C12.26945801 83.0625 8.98785764 80.4974829 5.796875 77.65234375 C4.95640625 76.77707031 4.1159375 75.90179688 3.25 75 C2.39921875 74.12214844 1.5484375 73.24429688 0.671875 72.33984375 C-0.04484375 71.58832031 -0.7615625 70.83679688 -1.5 70.0625 C-2.49 69.0725 -2.49 69.0725 -3.5 68.0625 C-6.80872557 70.83725257 -10.043489 73.59485458 -13.0625 76.6875 C-15.7685698 79.32418339 -18.13865136 81.31459871 -21.5 83.0625 C-25.25 83 -25.25 83 -28.5 82.0625 C-31.52346219 77.52730672 -31.29498476 73.37564814 -30.5 68.0625 C-29.14582374 64.71642493 -27.5795692 61.64164054 -25.8125 58.49609375 C-24.34177018 56.22994315 -24.34177018 56.22994315 -24.5 54.0625 C-26.89193511 52.52142738 -29.27670934 51.08644074 -31.75 49.6875 C-40.52879734 44.70897599 -40.52879734 44.70897599 -43.5 41.0625 C-44.08688021 37.54121874 -43.99243724 35.83327133 -42.0625 32.8125 C-36.98449818 29.34459632 -32.66932324 28.75784405 -26.578125 29.61328125 C-22.85692526 30.31603292 -19.17773394 31.16123714 -15.5 32.0625 C-15.25765625 30.96292969 -15.0153125 29.86335938 -14.765625 28.73046875 C-9.81070302 6.669447 -9.81070302 6.669447 -5.0625 1.3125 C-2.5 0.0625 -2.5 0.0625 0 0 Z " fill="#000000" transform="translate(600.5,264.9375)"/>
<path d="M0 0 C4.27434507 0.51586923 5.76267425 1.2480513 8.625 4.4375 C10.60184559 9.85501455 10.87761217 14.64717695 10.75 20.375 C10.74097656 21.15423828 10.73195313 21.93347656 10.72265625 22.73632812 C10.69933691 24.63685447 10.66347586 26.53722008 10.625 28.4375 C11.29144531 28.2209375 11.95789063 28.004375 12.64453125 27.78125 C20.24331131 25.48567449 28.20720378 23.49366966 35.75 26.8125 C38.21943118 28.95267369 38.56641844 29.9981383 39 33.25 C38.48360642 37.63934547 37.03204081 38.6562422 33.625 41.4375 C21.19860406 50.4375 21.19860406 50.4375 16.625 50.4375 C16.97433594 51.11296875 17.32367187 51.7884375 17.68359375 52.484375 C18.13863281 53.37640625 18.59367188 54.2684375 19.0625 55.1875 C19.51496094 56.06921875 19.96742188 56.9509375 20.43359375 57.859375 C23.05882832 63.54021045 23.2648899 69.24885056 22.625 75.4375 C21.0625 78.6875 21.0625 78.6875 18.625 80.4375 C14.17451478 80.68941426 11.45200282 79.60459962 8.0625 76.875 C4.85807401 73.90874081 2.34529338 70.57349086 -0.11328125 66.9765625 C-0.73783203 66.21472656 -0.73783203 66.21472656 -1.375 65.4375 C-3.61862573 65.2090451 -3.61862573 65.2090451 -5.5 67.4375 C-6.46062836 68.43529553 -7.41858991 69.43566043 -8.375 70.4375 C-9.74565377 71.83760141 -11.12089646 73.23322088 -12.5 74.625 C-13.16257812 75.29917969 -13.82515625 75.97335937 -14.5078125 76.66796875 C-17.06742056 79.0937061 -18.77442034 80.36083026 -22.3125 80.8125 C-26.05186517 80.35461855 -27.0715709 79.33811443 -29.375 76.4375 C-31.2816112 72.62427759 -30.82725405 68.92079954 -29.62109375 64.96484375 C-27.71840574 60.01785492 -25.51705598 55.70171883 -22.375 51.4375 C-23.23609375 51.18871094 -24.0971875 50.93992187 -24.984375 50.68359375 C-28.61076301 49.35085438 -31.42635826 47.65787765 -34.625 45.5 C-35.66140625 44.81035156 -36.6978125 44.12070312 -37.765625 43.41015625 C-40.375 41.4375 -40.375 41.4375 -42.375 38.4375 C-42.73127978 35.0884701 -42.73804971 33.10914196 -41.125 30.125 C-37.8034999 26.92212491 -33.43796302 27.17372395 -29.03515625 27.203125 C-24.01683081 27.64526821 -19.20760581 29.06376434 -14.375 30.4375 C-14.13265625 29.32632813 -13.8903125 28.21515625 -13.640625 27.0703125 C-7.82535741 1.01439818 -7.82535741 1.01439818 0 0 Z " fill="#000000" transform="translate(510.375,524.5625)"/>
</svg>
