<svg version="1.2" xmlns="http://www.w3.org/2000/svg" viewBox="0 0 1024 1024" width="1024" height="1024">
	<defs>
		<filter x="-50%" y="-50%" width="200%" height="200%" id="f1" ><feDropShadow dx="0" dy="0" stdDeviation="42.5" flood-color="#ea9500" flood-opacity="1"/></filter>
		<filter x="-50%" y="-50%" width="200%" height="200%" id="f2" ><feDropShadow dx="0" dy="0" stdDeviation="6.666666666666667" flood-color="#e88500" flood-opacity=".6"/></filter>
	</defs>
	<style>
		.s0 { filter: url(#f1) url(#f2);fill: #fedb4b } 
	</style>
	<path fill-rule="evenodd" class="s0" d="m299 266c-5.97 5.33-5.97 5.33-10.27 27.16q-0.37 1.95-0.73 3.84c-4.49-1.41-8.93-2.82-13.63-3.23-6.74-0.05-10.39 1.36-15.37 6.23-0.38 2.46-0.38 2.46 0 5 3.59 4.79 3.59 4.79 17.66 12.71q1.19 0.66 2.34 1.29c-4.31 7.96-8.17 15.78-6 25 2.37 2.97 3.24 3.91 7.06 4.37 3.41-0.43 5.11-1.67 7.7-3.85 0.97-0.86 0.97-0.86 1.93-1.71q1.07-0.94 2.1-1.86 2.25-1.99 4.51-3.97 2.12-1.84 4.23-3.69c0.74-0.65 0.74-0.65 1.47-1.29 0 2.3 0 2.3 4.33 6.75q0.91 0.92 1.79 1.81c1.69 1.78 3.38 3.5 5.18 5.16 2.58 1.95 4.48 2.45 7.7 2.28 2.34-1.57 2.34-1.57 4-4 1.89-8.72-0.75-15.9-4.69-23.61q-0.66-1.21-1.31-2.39c6.35 0 16.36-7.1 20.95-11.32 1.76-2.81 1.76-2.81 0.91-8.63-1.15-2.74-2.25-3.63-4.86-5.05-7.36-1.02-14.28-0.05-21.27 2.34q-0.88 0.34-1.73 0.66c0.47-2.37 0.83-4.59 1-7-0.27-8.23-0.7-17.05-7-23-3.19-0.89-5-1.5-8 0zm296.44 0.25c-4.75 5.36-4.75 5.36-9.71 27.42q-0.37 1.69-0.73 3.33c-3.68-0.9-7.36-1.75-11.08-2.45-6.09-0.85-10.4-0.27-15.48 3.2-1.93 3.02-2.03 4.73-1.44 8.25 2.97 3.65 2.97 3.65 11.75 8.62 2.47 1.4 4.86 2.84 7.25 4.38 0.16 2.17 0.16 2.17-1.31 4.43-1.77 3.15-3.34 6.22-4.69 9.57-0.79 5.31-1.02 9.46 2 14 3.25 0.94 3.25 0.94 7 1 3.36-1.75 5.73-3.74 8.44-6.38 3.02-3.09 6.25-5.85 9.56-8.62 1.01 1.01 1.01 1.01 2 2q1.1 1.16 2.17 2.28 1.31 1.35 2.58 2.66 1.29 1.34 2.55 2.65c3.19 2.84 6.47 5.41 10.89 5.41 2.82-1.56 3.57-3.01 4.81-6 0.56-5.58 0.17-10.47-2.19-15.58q-0.7-1.35-1.37-2.67-0.7-1.37-1.38-2.7-0.54-1.04-1.06-2.05c7.41-3.71 15.79-7.32 21-14 0.69-4.07 0.22-6.27-2.13-9.61-1.87-1.39-1.87-1.39-5.05-1.72q-1.88 0.04-3.69 0.08c-3.39 0.04-6.56 0.14-9.89 0.77-2.35 0.59-2.35 0.59-5.24 0.48 0.16-7.18-0.19-14.35-1.75-21.38-1.99-4.17-4.48-6.87-8.75-8.68-2.5 0.06-2.5 0.06-5.06 1.31zm-135.7 35.02q-0.55 1.29-1.08 2.53c-0.64 1.47-0.64 1.47-1.26 2.91q-0.68 1.61-1.34 3.16-2.25 5.22-4.49 10.44-3.55 8.32-7.13 16.62-0.42 0.96-0.82 1.88c-8.62 20-17.66 39.82-27.62 59.19-11.18-6.8-21-8.19-34-7-20.69 6.9-34.69 22.09-46.69 39.69-4.34 6.41-8.64 13.32-14.69 18.25-2.62 2.06-2.62 2.06-5.38 4.68-8.12 7.85-15.54 13.73-27.24 14.38-3.85-13.72 2.16-28.58 7.31-41.2q0.74-1.79 1.46-3.52 1.52-3.64 3.04-7.28c1.86-4.3 3.7-8.56 5.19-13 0.72-4.15 0.4-6.4-2-10-3.73-2.8-6.36-3.5-11-3-3 2-3 2-3.97 3.95-4.09 11.4-9.43 22.33-15.03 33.05-9.46 16.79-24.8 36.35-44 42-0.7-11.08 1.24-19.91 4.5-30.37 3.12-9.94 5-18.77 4.85-29.23-0.74-7.14-4.24-11.59-9.35-16.4-4.5-2.66-8.46-3.56-13.62-3.34-10.3 1.46-18.9 8-25.47 15.82-0.96 1.27-0.96 1.27-1.91 2.52-0.97 1.24-0.97 1.24-1.92 2.46q-0.93 1.19-1.83 2.35-0.94 1.22-1.86 2.4-0.71 0.91-1.39 1.79c-2.02-9.18-3.86-17.14-10.56-24-4.15-3.41-7.57-3.68-12.83-3.44-11.93 2.01-11.93 2.01-30.59 26.11q-0.52 0.68-1.02 1.33 0.9-2.82 1.78-5.65 0.36-1.19 0.72-2.35c1.2-3.73 2.36-7.35 2.69-11.28 0.06-4.48-0.11-6.61-3.25-9.84-3.99-2.55-3.99-2.55-10.94-1.88-3 2-3 2-3.9 4.9-1.54 7.19-3.37 14.19-5.68 21.18q-0.48 1.44-0.95 2.84-1.97 5.92-3.97 11.83c-5.94 17.46-12.08 35.15-11.84 53.82 0.48 3.42 1.87 5.05 4.53 7.18 3.75 1.67 5.88 1.32 9.81 0.25 3.42-2.66 4.76-5.44 6.18-9.48q2.19-6.34 4.82-12.52c9.31-19.98 20.91-46.51 43-55 0.63 2.18 1.01 4.17 1.17 6.45q0.01 1.36 0.02 2.68c-1.99 16.85-1.99 16.85-7.82 32.93-2.94 8.56-6.41 16.75-5.37 25.94 1.41 2.97 1.41 2.97 5.81 5.81 3.65 1.36 5.49 1.28 9.19 0.19 3.45-3.45 3.45-3.45 9.82-18.16 6.8-15.76 14.44-30.81 25.15-44.32 5.46-6.55 11.22-12.61 20.03-13.52 0.46 5.77-0.02 10.6-1.59 16.13-3.1 10.5-5.77 21.02-7.41 31.87-0.89 8.5-0.04 17.43 5.31 24.44 4.57 4.35 8 5.73 14.25 5.87 11.04-0.04 19.9-7.58 27.47-14.92q1.03-1.02 2.03-2.02c3.32-3.26 6.33-6.12 8.37-10.33q0.29-1.04 0.57-2.04 1.01 0 2 0-0.07 3.35-0.05 6.69c0.14 6.35 2.23 11.57 6.81 16.02 6.07 4.89 11.48 6.63 19.24 6.16 11.66-1.61 22.44-10.46 30-19.18 2.52-3.1 5.13-5.91 8-8.69-0.1 1.62-0.18 3.25-0.17 4.87 0.64 7.97 4.3 13.86 10.17 19.13 6.48 5.16 14.07 4.6 22 4 16.24-3.12 27.54-18.3 36.53-30.91q0.75-1.06 1.47-2.09 0.12 2.88 0.26 5.75 0.06 1.21 0.11 2.37c0.4 9.83 2.39 15.96 9.63 22.88 4.08 2.84 7.68 3.6 12.57 3.41 12.23-2.07 20.46-12.11 27.74-21.25 0.85-1.09 0.85-1.09 1.69-2.16q-0.77 3.66-1.39 7.35-0.15 1.16-0.3 2.28c-0.52 3.66-0.5 4.09 1.69 7.37 3.98 3.07 7.02 3.55 12 3 1.9-1.51 2.95-2.9 4.12-5.03q0.53-1.18 1.04-2.33 0.61-1.32 1.2-2.61c7.54-16.59 16.55-32.19 28.26-46.22 6.96-8.05 16.35-18.84 27.38-19.81 0 6.76-1 12.37-3.19 18.75-3.73 10.85-8.43 22.19-9.26 33.71-0.12 9.28 0.86 15.65 7.45 22.54 4.7 4.25 8.44 4.4 14.51 4.24 8.41-0.81 17.02-7.05 22.62-13.13q1.6-1.81 3.23-3.59 3.76-4.05 7.48-8.14 1.1-1.21 2.16-2.38c1.24 9.96 2.89 17.36 11 24 6.44 3.45 12.23 3.7 19.37 2.37 9.61-3.64 20.76-10.57 25.94-19.67q0.35-0.87 0.69-1.7 1.02 0 2 0 0 2.03 0 4c1.47 4.52 3.79 8.13 7.31 11.31 7.22 5.59 13.78 6.34 22.69 5.69 14.47-2.59 24.71-13.98 33.38-24.91q0.82-1.06 1.62-2.09c-0.54 4.44-0.54 4.44-1.99 8.73q-0.42 1.34-0.82 2.64-0.4 1.33-0.79 2.62-0.4 1.29-0.79 2.53c-9.42 13.99-9.42 13.99-24.45 23.16-12.97 8.77-26.13 17.53-36.96 28.93q-1.12 1.21-2.2 2.39c-5.49 5.72-10.45 11.48-14.56 18.29-4.77 8.99-6.04 18.62-3.44 28.52 3.08 4.91 6.9 8.4 11.91 11.3 6.46 2.82 14.38 2.99 21.09 0.89 20.61-8.43 35.97-28.72 46-48.03q0.51-1 1-1.97c6.51-12.74 11.2-25.97 15.51-39.59q0.35-1.1 0.68-2.16 0.67-2.08 1.33-4.15c2.21-7.07 4.98-12.27 10.9-16.88 0.86-0.65 0.86-0.65 1.7-1.28 8.48-6.52 17.17-12.74 25.88-18.94-2.21 4.42-2.21 4.42-5 16-0.56 4.88-0.46 9.09 2.62 13.13 3.22 2.53 5.3 2.94 9.38 2.87 4.48-2.71 4.48-2.71 7-11 2.21-7.83 4.75-15.41 8.34-22.72 7.62-13.63 19.78-22.06 34.66-26.28q-0.88 3.28-1.75 6.56c-0.91 3.48-1.81 6.95-2.83 10.4-2.94 9.67-4.93 19.14-3 29.25 1.79 5.53 5.41 9.04 10.29 11.88 4.86 1.93 9.88 1.56 14.85 0.22q1.24-0.66 2.44-1.31c10.79-5.16 18.56-13.24 26.38-22.13q0.82-0.95 1.62-1.87c0.56 5.35 1.62 10.14 4 15 4.06 5.7 8.44 9.5 15.25 11.31 10.69 1.97 19.3-1.39 28.39-6.92 8.34-5.58 19.86-14.3 22.05-24.64-0.69-2.75-0.69-2.75-2.82-5.12-3.3-1.88-5.13-2.13-8.87-1.63-2 2-2 2-3.13 4.13q-0.44 0.95-0.87 1.87-1.01 0-2 0-1.48 2.02-3 4c-7.91 5.86-15.89 11.16-26 10-2.71-1.2-2.71-1.2-4-4 2.92-31.31 2.92-31.31 18-60q4.17-0.12 8.34-0.26 1.73-0.06 3.41-0.11 1.71-0.05 3.37-0.1c1.63-0.06 1.63-0.06 3.24-0.12 2.98-0.09 2.98-0.09 5.64-0.41 3.21-1.21 3.8-1.6 5.37-4.75 0.77-3.96 0.59-5.72-1.37-9.25-4.98-3.39-4.98-3.39-18.18-3.11q-1.43 0.06-2.82 0.11c4.25-10.19 9.72-20.91 11-32-0.4-3.45-0.71-4.67-3.06-7.31-4.13-2.37-6.21-2.37-10.94-1.69-3.51 3.41-5.14 7.32-6.89 11.79q-1 2.63-2.02 5.25-0.53 1.36-1.05 2.69-2.33 6.03-4.74 12.03-1.14 2.83-2.27 5.66-0.52 1.31-1.03 2.58-3.38 0.3-6.77 0.61-1.42 0.14-2.79 0.27c-6.03 0.52-11.71 1.11-17.44 3.12-1.94 1.75-1.94 1.75-3 4-0.42 4.1-0.33 5.51 2 9 5.93 2.09 11.4 2.18 17.66 2.07q1.19-0.04 2.34-0.07c-7.29 18.16-15.87 35.59-29.5 49.94-6.17 5.71-12.72 12.06-21.5 12.06-0.21-5.05 0.09-9.12 1.63-13.94 3.41-10.25 8.14-23.32 6.12-34.22-1.58-3.89-3.93-6.14-7.75-7.84-6.06-0.81-12.14-0.6-17.83 1.76q-0.94 0.44-1.84 0.87-1.02 0.48-2.01 0.95c-1.05 0.49-1.05 0.49-2.07 0.98q-2.05 0.97-4.11 1.94c-1.59 0.76-1.59 0.76-3.14 1.5 2.11-2.72 4.29-5.31 6.63-7.84 5.19-5.48 10.28-11.02 14.99-16.91 14.82-18.96 28.17-44.47 25.38-69.25-1.63-5.27-4.4-8.08-9-11-4.41-1.88-8.42-2.52-13.06-1.12-12.93 5.88-12.93 5.88-26.95 34.1q-0.5 1.03-0.99 2.02c-7.15 14.37-7.15 14.37-18 48q-2.02 6.28-4.07 12.56-0.97 2.97-1.93 5.96-0.3 0.96-0.6 1.9-0.6 1.82-1.17 3.58c-3.36 10.43-12.26 17.38-21.04 23.44-5.41 3.65-10.54 7.62-15.7 11.62q-1.26 0.98-2.49 1.94c2.36-10.47 5.41-20.66 8.69-30.88 2.51-7.68 5.87-15.88 5.31-24.12-2.52-2.52-4.67-3.72-8-5-3.08 0.68-5.54 1.78-8.38 3.13q-0.82 0.44-1.62 0.87c-0.95-0.92-0.95-0.92-1.88-1.81-7.91-5.54-17.01-6.17-26.31-4.63-22.7 5.76-39.4 24.47-51.93 43.11-2.83 4.21-5.68 8.4-8.88 12.33-8.43 9.25-17.15 16.39-30 17q-0.51-1.01-1-2c-1.37-14.42 3.33-26.89 8.92-39.86 1.98-4.57 3.95-9.14 5.78-13.78q0.41-1.04 0.8-2.05c1.26-3.16 2.37-6.06 2.73-9.46 0.1-3.74 0.17-5.39-2.36-8.29-3.1-1.69-5.34-2.41-8.87-2.56-4.18 2.79-4.18 2.79-8.09 11.67-8.51 19.55-18.94 41.13-35.95 54.81q-1 0.77-1.96 1.52c-5.72 4.9-10.63 8.17-18 10 0.83-10.48 2.99-19.71 6.47-29.61 2.64-7.5 5.15-15.04 5.84-23 0.15-8.42-0.87-14.55-6.69-20.84-5.15-4.93-10.13-4.86-16.91-4.75-11.48 0.86-11.48 0.86-29.46 21.73q-0.63 0.75-1.25 1.47c1.76-6.37 3.58-12.36 3-19-1.3-2.6-1.3-2.6-6.09-5.23-2.96-1.19-4.95-0.78-7.91 0.23-1.89 1.55-2.91 2.81-3.95 5.03q-0.41 1.18-0.81 2.33-0.48 1.32-0.94 2.61c-6.99 19.69-16.83 37.45-31.44 52.61-5.42 5.41-12.57 14.42-20.86 14.42q-1.01-1.01-2-2c6.77-48.21 6.77-48.21 29.75-92.77 8.25-17.88 16.66-35.77 23.89-54.09 0.47-1.21 0.47-1.21 0.92-2.39 1.64-4.1 2.65-7.65 2.19-12.09-0.83-4.06-1.36-5.34-4.75-7.66-7.33-2.7-11.38-1.74-15.26 5.27zm354.26 31.73c-0.78 26.26-15.02 47.38-30 68-0.95-2.59-1.01-3.97-0.38-6.69q0.53-1.57 1.04-3.08 0.58-1.74 1.15-3.42 0.63-1.84 1.25-3.62c5.95-17.43 11.55-38.8 24.94-52.19q1.01 0.51 2 1zm-410.96 76.97q1.09 0.56 2.15 1.09 1.91 0.97 3.81 1.94c0.24 2.99 0.24 2.99-1.25 5.24-2.61 3.92-5.2 7.84-7.61 11.88-7.23 12.21-15.54 23.38-26.35 32.66-5.65 4.5-10.33 6.97-17.79 6.22-3.42-2.69-3.42-2.69-5-7-1.61-13.66 6.45-27.81 14.55-38.13 9.45-11.05 22.53-21.02 37.49-13.9zm303.96 7.03c-0.65 12.42-14.28 28.15-23.2 36.39q-0.92 0.82-1.8 1.61c-3.23 3.14-6.47 6.18-10 9-5.59 3.59-10.32 5.84-17 5-3.29-2.24-3.29-2.24-5-6-1.41-11.43 4.34-21.36 10.83-30.35 11.52-14.09 28.31-26.64 46.17-15.65zm-23.69 97.33q-0.41 1.04-0.81 2.05c-6.62 17.07-15.39 36.14-29.44 48.37-1.54 1.14-1.54 1.14-3.06 2.25-5.62 4.28-9.81 7-17 7-3.4-1.77-3.4-1.77-3.81-5.75-0.54-6.33 1.9-10.84 5.29-16q0.77-1.14 1.52-2.25c7.95-12.31 18.7-21.55 30.05-30.66q2.44-1.94 4.88-3.89 6.53-5.23 13.07-10.45c1.14 3.63 0.65 5.75-0.69 9.33z"/>
</svg>